<?xml version="1.0" encoding="UTF-8" standalone="no"?>
<svg
   xmlns:dc="http://purl.org/dc/elements/1.1/"
   xmlns:cc="http://creativecommons.org/ns#"
   xmlns:rdf="http://www.w3.org/1999/02/22-rdf-syntax-ns#"
   xmlns:svg="http://www.w3.org/2000/svg"
   xmlns="http://www.w3.org/2000/svg"
   viewBox="0 0 592.32001 419.90668"
   height="419.90668"
   width="592.32001"
   xml:space="preserve"
   id="svg2"
   version="1.1"><metadata
     id="metadata8"><rdf:RDF><cc:Work
         rdf:about=""><dc:format>image/svg+xml</dc:format><dc:type
           rdf:resource="http://purl.org/dc/dcmitype/StillImage" /></cc:Work></rdf:RDF></metadata><defs
     id="defs6" /><g
     transform="matrix(1.3333333,0,0,-1.3333333,0,419.90667)"
     id="g10"><g
       transform="scale(0.1)"
       id="g12"><path
         id="path14"
         style="fill:#181818;fill-opacity:1;fill-rule:nonzero;stroke:none"
         d="m 628.398,328.27 c 837.852,-437.692 2196.282,-437.7 3034.122,-0.008 837.85,437.718 837.85,1147.368 0,1585.068 -837.86,437.7 -2196.28,437.7 -3034.133,0.01 -837.852,-437.7 -837.852,-1147.36 0.011,-1585.07" /><path
         id="path16"
         style="fill:#26b6a6;fill-opacity:1;fill-rule:nonzero;stroke:none"
         d="M 564.258,2551.9 1092.32,2716.07 686.117,2434.64 Z" /><path
         id="path18"
         style="fill:#26b6a6;fill-opacity:1;fill-rule:nonzero;stroke:none"
         d="m 1092.32,2716.07 -568.683,-93.81 -121.86,117.26 z" /><path
         id="path20"
         style="fill:#33535f;fill-opacity:1;fill-rule:nonzero;stroke:none"
         d="m 523.637,2622.26 v -140.72 l 40.621,70.36 528.062,164.17 -568.683,-93.81" /><path
         id="path22"
         style="fill:#26b6a6;fill-opacity:1;fill-rule:nonzero;stroke:none"
         d="m 523.637,2481.54 81.242,31.27 -40.621,39.09 z" /><path
         id="path24"
         style="fill:#33535f;fill-opacity:1;fill-rule:nonzero;stroke:none"
         d="m 564.258,2551.9 40.621,-39.09 -12.961,-4.98 z" /><path
         id="path26"
         style="fill:#dadbd8;fill-opacity:1;fill-rule:nonzero;stroke:none"
         d="m 459.488,2530.78 c -8.812,-4.21 -17.855,-8.85 -27.054,-13.93 -3.625,-2 -4.942,-6.56 -2.942,-10.19 2.004,-3.63 6.567,-4.95 10.192,-2.94 8.945,4.94 17.726,9.44 26.265,13.52 3.739,1.78 5.321,6.26 3.539,10 -1.785,3.74 -6.261,5.32 -10,3.54" /><path
         id="path28"
         style="fill:#dadbd8;fill-opacity:1;fill-rule:nonzero;stroke:none"
         d="m 390.266,2491.05 c -15.801,-10.64 -31.731,-22.51 -47.442,-35.63 -3.176,-2.66 -3.601,-7.39 -0.945,-10.56 2.652,-3.18 7.383,-3.61 10.562,-0.96 15.297,12.78 30.817,24.34 46.204,34.71 3.437,2.31 4.347,6.97 2.031,10.41 -2.313,3.43 -6.973,4.34 -10.41,2.03 z m -83.985,-68.96 c -13.722,-13.68 -27.039,-28.4 -39.691,-44.17 -2.59,-3.23 -2.074,-7.95 1.156,-10.54 3.234,-2.59 7.953,-2.08 10.547,1.16 12.281,15.31 25.227,29.62 38.578,42.92 2.934,2.93 2.942,7.68 0.02,10.61 -2.926,2.93 -7.672,2.94 -10.61,0.02 z m -68.769,-84.25 c -10.641,-16.3 -20.508,-33.52 -29.395,-51.68 -1.82,-3.72 -0.281,-8.21 3.438,-10.03 3.718,-1.83 8.211,-0.29 10.035,3.43 8.601,17.58 18.168,34.27 28.48,50.08 2.266,3.47 1.289,8.11 -2.179,10.38 -3.469,2.26 -8.118,1.28 -10.379,-2.18 z m -48.813,-97.29 c -6.636,-18.22 -12.277,-37.24 -16.754,-57.07 -0.914,-4.04 1.621,-8.05 5.664,-8.96 4.039,-0.92 8.055,1.62 8.965,5.66 4.336,19.2 9.797,37.6 16.219,55.23 1.418,3.89 -0.586,8.2 -4.477,9.62 -3.894,1.42 -8.199,-0.59 -9.617,-4.48 z m -25.152,-105.89 c -2.383,-19.54 -3.723,-39.34 -3.977,-59.22 -0.054,-4.14 3.262,-7.54 7.403,-7.59 4.14,-0.06 7.543,3.26 7.597,7.4 0.246,19.33 1.551,38.59 3.868,57.6 0.5,4.11 -2.426,7.85 -6.536,8.35 -4.113,0.5 -7.851,-2.42 -8.355,-6.54 z m -2.34,-108.67 c 1.566,-19.72 4.242,-39.39 8.074,-58.86 0.801,-4.06 4.742,-6.71 8.809,-5.91 4.062,0.8 6.707,4.75 5.906,8.81 -3.715,18.88 -6.312,37.98 -7.836,57.14 -0.332,4.13 -3.941,7.21 -8.07,6.89 -4.129,-0.33 -7.211,-3.94 -6.883,-8.07 z m 20.078,-106.93 c 5.778,-18.96 12.75,-37.57 20.961,-55.68 1.715,-3.78 6.156,-5.45 9.93,-3.74 3.773,1.71 5.445,6.16 3.734,9.93 -7.937,17.5 -14.683,35.51 -20.277,53.86 -1.207,3.96 -5.399,6.2 -9.363,4.99 -3.961,-1.21 -6.196,-5.4 -4.985,-9.36 z m 44.008,-99.64 c 10.172,-16.92 21.586,-33.22 34.297,-48.74 2.625,-3.21 7.348,-3.68 10.551,-1.05 3.207,2.62 3.675,7.35 1.05,10.55 -12.234,14.94 -23.234,30.65 -33.039,46.97 -2.132,3.55 -6.742,4.7 -10.293,2.56 -3.55,-2.13 -4.699,-6.74 -2.566,-10.29 z m 68.105,-85.16 c 14.161,-13.47 29.524,-26.1 46.125,-37.76 3.387,-2.38 8.067,-1.57 10.446,1.82 2.383,3.39 1.562,8.07 -1.824,10.45 -15.993,11.24 -30.782,23.4 -44.411,36.36 -3,2.85 -7.746,2.73 -10.601,-0.27 -2.856,-3 -2.735,-7.75 0.265,-10.6" /><path
         id="path30"
         style="fill:#dadbd8;fill-opacity:1;fill-rule:nonzero;stroke:none"
         d="m 382.148,1670.23 c 8.84,-4.74 17.965,-9.25 27.375,-13.49 3.774,-1.71 8.215,-0.03 9.918,3.75 1.704,3.78 0.024,8.22 -3.75,9.92 -9.097,4.11 -17.914,8.46 -26.449,13.04 -3.648,1.96 -8.195,0.59 -10.152,-3.06 -1.961,-3.65 -0.59,-8.2 3.058,-10.16" /><path
         id="path32"
         style="fill:#26b6a6;fill-opacity:1;fill-rule:nonzero;stroke:none"
         d="m 3833.08,2018.92 422.98,270.89 186.33,-59.82 z" /><path
         id="path34"
         style="fill:#26b6a6;fill-opacity:1;fill-rule:nonzero;stroke:none"
         d="m 3833.08,2018.92 365.59,304.88 -81.24,93.81 z" /><path
         id="path36"
         style="fill:#33535f;fill-opacity:1;fill-rule:nonzero;stroke:none"
         d="m 4198.67,2323.8 v -70.75 l -365.59,-234.13 z" /><path
         id="path38"
         style="fill:#dadbd8;fill-opacity:1;fill-rule:nonzero;stroke:none"
         d="m 3247.83,2918.49 c 17.16,9.91 34.67,19.22 52.5,27.92 3.72,1.82 5.27,6.31 3.45,10.03 -1.82,3.72 -6.31,5.27 -10.03,3.45 -18.14,-8.85 -35.96,-18.32 -53.42,-28.41 -3.59,-2.07 -4.82,-6.66 -2.75,-10.25 2.07,-3.58 6.66,-4.81 10.25,-2.74 z m 97.64,48.39 c 18.27,7.66 36.82,14.71 55.6,21.14 3.92,1.34 6.01,5.6 4.67,9.52 -1.35,3.92 -5.61,6.01 -9.53,4.67 -19.09,-6.53 -37.95,-13.7 -56.54,-21.5 -3.82,-1.6 -5.62,-6 -4.02,-9.82 1.61,-3.82 6,-5.62 9.82,-4.01 z m 102.93,35.87 c 19.08,5.37 38.35,10.1 57.78,14.19 4.05,0.85 6.64,4.83 5.79,8.88 -0.86,4.06 -4.83,6.65 -8.89,5.8 -19.75,-4.16 -39.34,-8.98 -58.74,-14.42 -3.99,-1.13 -6.31,-5.27 -5.19,-9.25 1.12,-3.99 5.26,-6.32 9.25,-5.2 z m 106.55,23.07 c 19.59,3.01 39.29,5.38 59.07,7.09 4.13,0.36 7.18,4 6.82,8.12 -0.35,4.13 -3.99,7.18 -8.12,6.83 v 0 c -20.11,-1.75 -40.14,-4.15 -60.05,-7.22 -4.09,-0.62 -6.9,-4.45 -6.27,-8.55 0.63,-4.09 4.46,-6.9 8.55,-6.27 z m 108.56,10.01 c 9.3,0.29 18.62,0.44 27.94,0.44 10.51,0 21.03,-0.19 31.55,-0.56 4.14,-0.15 7.61,3.09 7.76,7.23 0.14,4.14 -3.09,7.61 -7.23,7.76 v 0 c -10.7,0.38 -21.39,0.57 -32.08,0.57 -9.48,0 -18.95,-0.15 -28.41,-0.45 -4.14,-0.13 -7.39,-3.59 -7.26,-7.73 0.13,-4.14 3.59,-7.39 7.73,-7.26 z m 108.96,-3.26 c 19.71,-1.8 39.4,-4.28 59.01,-7.43 4.09,-0.65 7.93,2.13 8.59,6.22 0.66,4.09 -2.13,7.94 -6.22,8.59 -19.94,3.21 -39.96,5.72 -60.01,7.56 -4.13,0.38 -7.78,-2.66 -8.16,-6.79 -0.38,-4.12 2.66,-7.77 6.79,-8.15 z m 107.7,-16.67 c 19.31,-4.24 38.53,-9.16 57.6,-14.75 3.98,-1.17 8.14,1.11 9.31,5.08 1.17,3.98 -1.11,8.15 -5.09,9.31 -19.4,5.69 -38.95,10.69 -58.6,15.01 -4.05,0.89 -8.05,-1.67 -8.94,-5.71 -0.89,-4.05 1.67,-8.05 5.72,-8.94 z m 104.72,-30.08 c 18.59,-6.66 37.01,-13.98 55.23,-21.99 3.79,-1.67 8.22,0.05 9.88,3.85 1.67,3.79 -0.05,8.21 -3.84,9.88 -18.54,8.15 -37.3,15.61 -56.22,22.38 -3.9,1.4 -8.19,-0.63 -9.59,-4.53 -1.39,-3.9 0.64,-8.2 4.54,-9.59 z m 99.97,-43.26 c 10.29,-5.27 20.5,-10.77 30.62,-16.5 7.22,-4.09 14.27,-8.27 21.15,-12.54 3.52,-2.18 8.14,-1.1 10.33,2.42 2.18,3.52 1.1,8.14 -2.42,10.33 -7.05,4.37 -14.28,8.66 -21.67,12.84 -10.31,5.84 -20.7,11.44 -31.17,16.8 -3.69,1.89 -8.21,0.43 -10.1,-3.26 -1.89,-3.68 -0.43,-8.2 3.26,-10.09 z m 92.53,-56.81 c 16.26,-12.16 31.34,-24.86 45.26,-38 3.02,-2.85 7.76,-2.71 10.61,0.3 2.84,3.01 2.7,7.76 -0.31,10.6 -14.35,13.55 -29.87,26.61 -46.57,39.11 -3.32,2.48 -8.02,1.8 -10.5,-1.52 -2.48,-3.31 -1.81,-8.01 1.51,-10.49 z m 79.25,-73.56 c 13.17,-15.31 24.95,-31.08 35.34,-47.15 2.25,-3.48 6.9,-4.47 10.38,-2.22 3.47,2.25 4.47,6.89 2.22,10.37 -10.78,16.65 -22.96,32.96 -36.56,48.78 -2.7,3.14 -7.44,3.5 -10.58,0.8 -3.14,-2.7 -3.5,-7.44 -0.8,-10.58 z m 59.44,-89.86 c 8.76,-18.04 15.9,-36.32 21.46,-54.69 1.2,-3.96 5.39,-6.21 9.35,-5 3.96,1.2 6.21,5.38 5.01,9.35 -5.8,19.13 -13.23,38.15 -22.32,56.89 -1.81,3.72 -6.3,5.28 -10.02,3.47 -3.73,-1.81 -5.29,-6.3 -3.48,-10.02 z m 32.35,-102.36 c 2.64,-17 3.94,-33.95 3.94,-50.73 0,-2.58 -0.03,-5.16 -0.09,-7.74 -0.1,-4.14 3.18,-7.57 7.32,-7.68 4.14,-0.09 7.58,3.18 7.68,7.32 0.06,2.7 0.09,5.4 0.09,8.1 0,17.55 -1.37,35.28 -4.12,53.03 -0.63,4.09 -4.47,6.89 -8.56,6.26 -4.09,-0.64 -6.9,-4.47 -6.26,-8.56 z m -1.08,-107 c -3.49,-19.28 -8.8,-38.1 -15.88,-56.26 -1.51,-3.86 0.4,-8.21 4.26,-9.71 3.86,-1.51 8.21,0.4 9.71,4.26 7.44,19.06 13.01,38.82 16.67,59.03 0.74,4.08 -1.97,7.98 -6.04,8.72 -4.08,0.74 -7.98,-1.97 -8.72,-6.04 z m -37.21,-100.06 c -9.82,-16.59 -21.33,-32.38 -34.5,-47.17 -2.75,-3.1 -2.48,-7.84 0.62,-10.59 3.09,-2.76 7.83,-2.48 10.59,0.61 13.8,15.51 25.89,32.08 36.2,49.51 2.11,3.56 0.93,8.16 -2.63,10.27 -3.57,2.11 -8.17,0.93 -10.28,-2.63" /><path
         id="path40"
         style="fill:#273e47;fill-opacity:1;fill-rule:nonzero;stroke:none"
         d="m 3685.61,1872.73 v 16 h -3.95 c -4.59,9.3 -13.2,18.09 -25.89,25.42 -39.81,22.98 -104.36,22.98 -144.16,0 -12.7,-7.33 -21.31,-16.12 -25.9,-25.42 h -3.91 v -15.49 c -0.31,-15.3 9.58,-30.65 29.81,-42.32 39.8,-22.99 104.35,-22.99 144.16,0 20,11.54 29.93,26.69 29.84,41.81" /><path
         id="path42"
         style="fill:#33535f;fill-opacity:1;fill-rule:nonzero;stroke:none"
         d="m 3511.61,1930.34 c 39.8,22.99 104.35,22.99 144.16,0 39.81,-22.98 39.81,-60.25 0,-83.23 -39.81,-22.98 -104.36,-22.98 -144.16,0 -39.82,22.98 -39.82,60.25 0,83.23" /><path
         id="path44"
         style="fill:#273e47;fill-opacity:1;fill-rule:nonzero;stroke:none"
         d="m 3557.45,2379.15 v -483.44 c 0,-3.88 2.56,-7.76 7.68,-10.71 10.24,-5.92 26.87,-5.92 37.11,0 5.12,2.95 7.69,6.83 7.69,10.71 v 483.44 h -52.48" /><path
         id="path46"
         style="fill:#33535f;fill-opacity:1;fill-rule:nonzero;stroke:none"
         d="m 3701.2,2741.07 c -25.54,14.75 -48.72,15.94 -66.1,6.2 l -0.07,0.14 -323.8,-187.35 162.48,-325.9 324.98,187.97 v 142.66 c 0,66.28 -43.66,145.2 -97.49,176.28" /><path
         id="path48"
         style="fill:#273e47;fill-opacity:1;fill-rule:nonzero;stroke:none"
         d="m 3473.71,2376.82 v -142.63 l -194.96,112.56 v 142.64 c 0,66.24 43.61,94.8 97.45,63.68 34.48,-19.84 64.8,-59.44 82.08,-102.64 9.76,-24.32 15.43,-49.76 15.43,-73.61" /><path
         id="path50"
         style="fill:#17282f;fill-opacity:1;fill-rule:nonzero;stroke:none"
         d="m 3473.71,2376.82 v -142.63 l -194.96,112.56 179.53,103.68 c 9.76,-24.32 15.43,-49.76 15.43,-73.61" /><path
         id="path52"
         style="fill:#33535f;fill-opacity:1;fill-rule:nonzero;stroke:none"
         d="m 3441.22,2327.96 c -17.94,51.82 -76.14,119.01 -129.99,150.1 -53.83,31.08 -82.94,14.28 -64.99,-37.52 l 32.49,-93.81 194.98,-112.57 c 0,0 -14.55,42 -32.49,93.8" /><path
         id="path54"
         style="fill:#17282f;fill-opacity:1;fill-rule:nonzero;stroke:none"
         d="m 3575.26,2371.48 -10.91,6.3 h -0.01 l -0.08,0.05 -0.01,-0.02 c -3.74,2.11 -8.87,1.8 -14.54,-1.48 -11.43,-6.59 -20.69,-22.64 -20.69,-35.83 0,-6.59 2.31,-11.22 6.04,-13.39 h 0.02 v -0.01 l 10.16,-5.81 1.82,3.06 c 1.9,0.43 3.86,1.1 5.94,2.31 11.43,6.59 20.7,22.64 20.7,35.83 0,1.96 -0.27,3.69 -0.66,5.28 l 2.22,3.71" /><path
         id="path56"
         style="fill:#273e47;fill-opacity:1;fill-rule:nonzero;stroke:none"
         d="m 3560.2,2370.3 c -11.43,-6.6 -20.68,-22.64 -20.68,-35.84 0,-13.19 9.25,-18.54 20.68,-11.94 11.42,6.6 20.69,22.64 20.69,35.84 0,13.19 -9.26,18.53 -20.69,11.94" /><path
         id="path58"
         style="fill:#17282f;fill-opacity:1;fill-rule:nonzero;stroke:none"
         d="m 3566.2,2346.73 v 206.38 c 0,3.31 -2.69,6 -6,6 -3.31,0 -6,-2.69 -6,-6 v -206.38 c 0,-3.32 2.69,-6 6,-6 3.31,0 6,2.68 6,6" /><path
         id="path60"
         style="fill:#273e47;fill-opacity:1;fill-rule:nonzero;stroke:none"
         d="m 3565.55,2547.66 v -53.8 l 57.71,59.25 z" /><path
         id="path62"
         style="fill:#26b6a6;fill-opacity:1;fill-rule:nonzero;stroke:none"
         d="m 531.98,763.09 c -4.964,-2.699 -96.746,-28.75 -130.746,16.16 -34,44.898 22.411,114.91 -9.484,140.711 -31.891,25.801 -121.27,-0.152 -142.781,54.199 -21.52,54.35 42.254,77.64 6.418,132.33 -22.574,34.46 -85.785,53.51 -82.891,85.6 4.246,46.9 90.559,59.55 166.004,9.3 75.445,-50.26 110.551,-9.09 134.492,-5.72 23.942,3.37 75.543,-4.07 73.887,-88.09 -1.656,-84.03 -14.899,-344.49 -14.899,-344.49" /><path
         id="path64"
         style="fill:#ffffff;fill-opacity:1;fill-rule:nonzero;stroke:none"
         d="m 225.098,1203.88 c 46.324,-13.34 117.246,-52.8 179.355,-108.89 62.207,-56.09 115.625,-128.791 128.664,-208.22 0.449,-2.719 3.024,-4.559 5.746,-4.122 2.727,0.454 4.571,3.032 4.121,5.75 -13.695,82.813 -68.644,156.962 -131.832,214.012 -63.277,57.04 -134.777,97.02 -183.281,111.07 -2.652,0.77 -5.426,-0.76 -6.191,-3.41 -0.766,-2.65 0.761,-5.42 3.418,-6.19" /><path
         id="path66"
         style="fill:#ffffff;fill-opacity:1;fill-rule:nonzero;stroke:none"
         d="m 322.047,1016.77 0.476,0.27 c 5.059,2.95 49.786,27.49 99.848,27.42 12.008,0 24.313,-1.39 36.484,-4.77 2.665,-0.73 5.418,0.82 6.157,3.48 0.738,2.67 -0.821,5.42 -3.481,6.16 -13.168,3.65 -26.383,5.13 -39.16,5.13 -56.805,-0.07 -105.043,-28.92 -105.433,-29.1 -2.375,-1.41 -3.157,-4.48 -1.747,-6.85 1.414,-2.37 4.481,-3.15 6.856,-1.74" /><path
         id="path68"
         style="fill:#26b6a6;fill-opacity:1;fill-rule:nonzero;stroke:none"
         d="m 3146.16,1607.94 c 39.39,-5.36 106.5,17.45 111.31,83.06 4.82,65.62 31.97,83.41 81.65,94.05 49.7,10.64 64.28,28.02 69.8,59.2 5.53,31.19 -32.09,68.56 -21.53,115.47 10.55,46.91 45.98,46.91 80.77,100.18 22.34,34.22 -23.34,86.35 -99.45,63.99 -76.09,-22.35 -69.76,-71.53 -146.16,-77.81 -76.39,-6.28 -123.78,-52.51 -125.21,-109.81 -1.44,-57.3 48.82,-328.33 48.82,-328.33" /><path
         id="path70"
         style="fill:#14b099;fill-opacity:1;fill-rule:nonzero;stroke:none"
         d="m 3157.78,1607.19 c -1.42,0 -2.82,0.03 -4.2,0.09 0.44,2.44 0.67,4.84 0.67,7.17 v 181.96 c 26,66.03 70.68,128.62 116.69,179.38 29.72,32.82 59.97,60.71 85.94,81.46 25.9,20.75 47.86,34.4 59.74,38.47 2.6,0.9 3.98,3.75 3.08,6.36 -0.72,2.07 -2.66,3.36 -4.73,3.36 -0.54,0 -1.09,-0.09 -1.64,-0.28 -14.19,-4.99 -36.19,-18.97 -62.69,-40.09 -39.63,-31.68 -88.66,-79.34 -131.28,-135.89 -24.98,-33.16 -47.77,-69.38 -65.11,-107.26 v 204.42 c 18.81,10.58 41.81,17.56 68.3,19.74 76.4,6.28 70.07,55.46 146.16,77.81 12.75,3.75 24.64,5.4 35.5,5.4 42.82,0 69.64,-25.72 69.63,-50.58 0,-6.48 -1.83,-12.91 -5.68,-18.81 -34.79,-53.27 -70.22,-53.27 -80.77,-100.18 -1.32,-5.86 -1.89,-11.58 -1.88,-17.15 0.05,-35.96 24.01,-65.98 23.97,-91.83 -0.01,-2.19 -0.18,-4.35 -0.56,-6.49 -5.52,-31.18 -20.1,-48.56 -69.8,-59.2 -49.68,-10.64 -76.83,-28.43 -81.65,-94.05 -4.36,-59.51 -59.99,-83.81 -99.69,-83.81" /><path
         id="path72"
         style="fill:#ffffff;fill-opacity:1;fill-rule:nonzero;stroke:none"
         d="m 3413.33,2105.16 c -14.19,-4.99 -36.19,-18.97 -62.69,-40.09 -39.63,-31.68 -88.66,-79.34 -131.28,-135.89 -42.6,-56.55 -78.84,-121.99 -92.49,-189.39 -0.55,-2.71 1.2,-5.34 3.91,-5.89 2.71,-0.55 5.34,1.2 5.89,3.91 17.56,87 74.81,172.37 134.27,237.98 29.72,32.82 59.97,60.71 85.94,81.46 25.9,20.75 47.86,34.4 59.74,38.47 2.6,0.9 3.98,3.75 3.08,6.36 -0.91,2.61 -3.76,3.99 -6.37,3.08" /><path
         id="path74"
         style="fill:#26b6a6;fill-opacity:1;fill-rule:nonzero;stroke:none"
         d="m 489.965,1798.25 c 0,16.56 11.633,36.71 25.98,45 l 1329.125,767.37 c 14.35,8.28 37.62,8.28 51.97,0 l 29.28,-16.91 c 14.35,-8.28 25.98,-28.43 25.98,-44.99 V 1529.91 c 0,-16.5 -11.69,-36.75 -25.98,-45 L 597.191,717.539 c -14.289,-8.25 -37.671,-8.25 -51.961,0 l -29.281,16.902 c -14.289,8.258 -25.98,28.5 -25.98,45 l -0.004,1018.809" /><path
         id="path76"
         style="fill:#06ab91;fill-opacity:1;fill-rule:nonzero;stroke:none"
         d="m 611.813,725.98 v 0 l 105.191,60.739 v -0.008 L 611.813,725.98 m -27.024,1047.49 -87.223,50.36 c -4.695,-8.13 -7.601,-17.31 -7.601,-25.58 v 0 c 0,16.56 11.633,36.71 25.98,45 l 1329.125,767.37 c 7.18,4.14 16.58,6.21 25.99,6.21 9.4,0 18.8,-2.07 25.98,-6.21 l 29.28,-16.91 c 7.18,-4.14 13.67,-11.25 18.37,-19.39 l -946.034,-546.2 -6.578,3.8 -0.086,0.04 -0.691,0.4 -0.067,-0.11 c -13.875,7.83 -29.906,11.92 -47.535,11.92 -24.785,0 -52.734,-8.08 -82.344,-25.17 -54.308,-31.36 -103.16,-86.63 -136.972,-149.23 l -153.149,-88.42 15.954,-7.04 c -0.825,-0.24 -1.625,-0.52 -2.399,-0.84 m 1366.631,783.52 c -1.08,3.97 -3.04,6 -5.6,6 -2.37,0 -5.25,-1.75 -8.39,-5.32 l 8.73,13.96 c 2.44,-4.73 4.26,-9.73 5.26,-14.64" /><path
         id="path78"
         style="fill:#26b6a6;fill-opacity:1;fill-rule:nonzero;stroke:none"
         d="m 611.813,1757.87 -114.247,65.96 c -4.695,-8.13 -7.601,-17.31 -7.601,-25.58 l 0.004,-1018.809 c 0,-16.5 11.691,-36.742 25.98,-45 l 29.281,-16.902 c 14.29,-8.25 37.672,-8.25 51.961,0 l 14.622,8.441 v 1031.89" /><path
         id="path80"
         style="fill:#0b7465;fill-opacity:1;fill-rule:nonzero;stroke:none"
         d="m 571.211,711.352 c -9.418,0 -18.836,2.058 -25.981,6.187 l -29.281,16.902 c -7.508,4.34 -14.301,11.989 -19.054,20.661 -4.293,7.839 -6.926,16.507 -6.926,24.339 V 995.34 l -0.004,802.91 c 0,8.27 2.906,17.45 7.601,25.58 l 87.223,-50.36 c -8.164,-3.37 -13.555,-11.47 -13.555,-22.09 v -1018.802 0 0 0 c 0,-8.609 3.102,-14.5 8.102,-17.098 v 0 0 0 0 c 0.055,-0.031 0.113,-0.058 0.172,-0.089 1.793,-0.903 3.82,-1.371 6.035,-1.371 0.008,0 0.016,0 0.023,0 v 0 0 c 0.028,0 0.055,0 0.082,0 3.161,0.019 6.696,0.968 10.454,2.949 0.054,0.031 0.105,0.062 0.156,0.082 0.004,0 0.004,0 0.004,0.008 0.051,0.019 0.097,0.05 0.144,0.07 0.074,0.043 0.149,0.082 0.223,0.121 0.031,0.02 0.062,0.039 0.094,0.051 0.007,0.008 0.023,0.019 0.035,0.019 0.09,0.059 0.183,0.11 0.277,0.16 l 0.199,0.098 14.579,8.41 v -0.008 l -14.622,-8.441 c -7.144,-4.129 -16.562,-6.187 -25.98,-6.187" /><path
         id="path82"
         style="fill:#26b6a6;fill-opacity:1;fill-rule:nonzero;stroke:none"
         d="M 1952.33,2548.68 V 1529.87 c 0,-8.49 -3.1,-17.99 -8.1,-26.3 -4.09,-6.79 -9.3,-12.9 -15.2,-17 l -0.99,-0.59 -1.71,-1.11 -1329.096,-767.292 -0.199,-0.098 c -6.898,-3.91 -13.101,-4.402 -17.699,-2 -5,2.598 -8.102,8.489 -8.102,17.098 V 1751.38 c 0,16.5 12.996,26.9 29.2,23 l 558.896,-132.9 73.2,-17.41 c 16.2,-3.8 37.1,4.01 46.7,17.51 l 84.8,118.1 570.8,794.7 c 9.6,13.4 17.5,10.9 17.5,-5.7" /><path
         id="path84"
         style="fill:#14b099;fill-opacity:1;fill-rule:nonzero;stroke:none"
         d="m 571.234,732.578 v 0 1018.802 c 0,11.63 6.465,20.23 15.954,22.93 l 91.656,-40.47 c -1.5,-11.81 -2.278,-23.48 -2.278,-34.9 v 0 0 0 0 c 0,-50.4 15.145,-87.96 40.438,-109.86 V 970.59 L 571.234,749.5 v -16.922 m 1219.316,1590.052 18.19,29.11 v -18.61 l -18.19,-10.5 m 73.4,117.44 73.48,117.6 c 3.14,3.57 6.02,5.32 8.39,5.32 3.96,0 6.51,-4.88 6.51,-14.31 v -57.57 l -88.38,-51.04" /><path
         id="path86"
         style="fill:#26b6a6;fill-opacity:1;fill-rule:nonzero;stroke:none"
         d="m 1926.33,1484.87 1.71,1.11 0.99,0.59 c 5.9,4.1 11.11,10.21 15.2,17 4.92,8.17 7.97,17.48 8.06,25.87 l -588.26,230.24 393.94,-372 168.36,97.19" /><path
         id="path88"
         style="fill:#26b6a6;fill-opacity:1;fill-rule:nonzero;stroke:none"
         d="m 571.234,732.578 c 0,-8.609 3.102,-14.5 8.102,-17.098 4.598,-2.402 10.801,-1.91 17.699,2 l 0.199,0.098 457.596,264.172 104.5,659.73 L 571.234,749.5 v -16.922" /><path
         id="path90"
         style="fill:#0b584b;fill-opacity:1;fill-rule:nonzero;stroke:none"
         d="m 585.566,714.02 c -0.007,0 -0.015,0 -0.023,0 0.008,0 0.016,0 0.023,0 v 0 m 0.082,0 c 3.161,0.019 6.696,0.968 10.454,2.949 -3.758,-1.981 -7.293,-2.93 -10.454,-2.949 m -6.14,1.371 c -0.059,0.031 -0.117,0.058 -0.172,0.089 0.055,-0.031 0.113,-0.058 0.172,-0.089 m -0.172,0.089 v 0 c -5,2.598 -8.102,8.489 -8.102,17.098 V 749.5 l 145.77,221.09 V 935.262 L 579.336,715.48 m 16.922,1.571 c 0.004,0 0.004,0 0.004,0.008 0,-0.008 0,-0.008 -0.004,-0.008 m 0.148,0.078 c 0.074,0.043 0.149,0.082 0.223,0.121 -0.074,-0.039 -0.149,-0.078 -0.223,-0.121 m 0.317,0.172 c 0.007,0.008 0.023,0.019 0.035,0.019 -0.012,0 -0.028,-0.011 -0.035,-0.019 m 0.511,0.277 119.77,69.152 v -0.011 l -119.77,-69.141" /><path
         id="path92"
         style="fill:#26b6a6;fill-opacity:1;fill-rule:nonzero;stroke:none"
         d="m 1944.23,1503.57 c -4.09,-6.79 -9.3,-12.9 -15.2,-17 l -0.99,-0.59 -1330.806,-768.402 -0.199,-0.098 c -6.898,-3.91 -13.101,-4.402 -17.699,-2 l 636.444,1016.04 c 26.38,42.11 79.68,58.47 125.14,38.4 l 603.31,-266.35" /><path
         id="path94"
         style="fill:#14b099;fill-opacity:1;fill-rule:nonzero;stroke:none"
         d="m 585.566,714.02 v 0 c -0.007,0 -0.015,0 -0.023,0 -2.285,0 -4.375,0.5 -6.207,1.46 L 717.004,935.262 V 786.73 l -119.77,-69.152 -0.199,-0.098 c -4.137,-2.339 -8.027,-3.46 -11.469,-3.46" /><path
         id="path96"
         style="fill:#26b6a6;fill-opacity:1;fill-rule:nonzero;stroke:none"
         d="m 571.234,1781.35 611.276,-269.88 c 45.5,-20.09 98.84,-3.7 125.19,38.48 l 641.91,1027.2 -1378.376,-795.8" /><path
         id="path98"
         style="fill:#0b584b;fill-opacity:1;fill-rule:nonzero;stroke:none"
         d="m 678.844,1733.84 -107.61,47.51 108.571,-40.56 c -0.348,-2.32 -0.668,-4.64 -0.961,-6.95 m 319.812,294.28 v 0 l 950.954,549.03 -85.66,-137.08 -6.12,-3.53 91.78,140.61 -950.954,-549.03 m 780.534,287.95 29.55,45.27 v -9.6 l -18.19,-29.11 -11.36,-6.56" /><path
         id="path100"
         style="fill:#26b6a6;fill-opacity:1;fill-rule:nonzero;stroke:none"
         d="M 571.234,1781.35 1186.8,1551.39 c 43.83,-16.38 93.16,-0.17 118.74,39.01 l 644.07,986.75 -1378.376,-795.8" /><path
         id="path102"
         style="fill:#14b099;fill-opacity:1;fill-rule:nonzero;stroke:none"
         d="m 679.805,1740.79 -108.571,40.56 153.149,88.42 c -22.348,-41.38 -38.125,-85.97 -44.578,-128.98 m 395.245,168.74 c -0.88,11.84 -2.79,22.74 -5.28,33.05 l 19.79,33.07 -90.904,52.47 950.954,549.03 -91.78,-140.61 -20.6,-11.89 c -8.18,-4.75 -15.13,-12.46 -20.21,-21.23 -5.05,-8.78 -8.25,-18.65 -8.28,-28.1 v 0 -13.98 l -29.55,-45.27 -704.14,-406.54" /><path
         id="path104"
         style="fill:#33535f;fill-opacity:1;fill-rule:nonzero;stroke:none"
         d="m 717,1672.81 c 0,16.57 11.633,36.72 25.98,45 l 1329.13,767.37 c 14.35,8.29 37.61,8.29 51.96,0 l 29.29,-16.9 c 14.34,-8.28 25.98,-28.43 25.98,-45 V 1404.47 c 0,-16.49 -11.69,-36.74 -25.98,-45 L 824.227,592.102 c -14.286,-8.243 -37.668,-8.243 -51.961,0 l -29.278,16.91 c -14.293,8.25 -25.98,28.5 -25.98,45 L 717,1672.81" /><path
         id="path106"
         style="fill:#33535f;fill-opacity:1;fill-rule:nonzero;stroke:none"
         d="m 717,1672.81 c 0,16.57 11.633,36.72 25.98,45 l 1329.13,767.37 c 14.35,8.29 37.61,8.29 51.96,0 l 29.29,-16.9 c 14.34,-8.28 25.98,-28.43 25.98,-45 V 1404.47 c 0,-16.49 -11.69,-36.74 -25.98,-45 L 824.227,592.102 c -14.286,-8.243 -37.668,-8.243 -51.961,0 l -29.278,16.91 c -14.293,8.25 -25.98,28.5 -25.98,45 L 717,1672.81" /><path
         id="path108"
         style="fill:#17282f;fill-opacity:1;fill-rule:nonzero;stroke:none"
         d="M 838.848,1632.44 724.605,1698.4 C 719.906,1690.26 717,1681.09 717,1672.81 l 0.008,-1018.798 c 0,-16.5 11.687,-36.75 25.98,-45 l 29.278,-16.903 c 14.293,-8.25 37.675,-8.25 51.961,-0.007 l 14.621,8.449 V 1632.44" /><path
         id="path110"
         style="fill:#273e47;fill-opacity:1;fill-rule:nonzero;stroke:none"
         d="m 2179.37,2423.24 v -1018.8 c 0,-8.5 -3.1,-17.99 -8.1,-26.29 -4.1,-6.81 -9.3,-12.91 -15.2,-17.01 l -1,-0.6 -1.7,-1.1 -1329.1,-767.299 -0.2,-0.102 c -6.898,-3.898 -13.097,-4.391 -17.699,-2 -5,2.609 -8.101,8.512 -8.101,17.102 V 1625.94 c 0,16.5 13,26.9 29.199,23 l 558.901,-132.9 73.2,-17.4 c 16.2,-3.8 37.1,4.01 46.7,17.5 l 84.8,118.1 570.8,794.7 c 9.6,13.4 17.5,10.9 17.5,-5.7" /><path
         id="path112"
         style="fill:#17282f;fill-opacity:1;fill-rule:nonzero;stroke:none"
         d="m 2153.37,1359.44 1.7,1.1 1,0.6 c 5.9,4.1 11.1,10.2 15.2,17.01 4.91,8.16 7.96,17.47 8.06,25.86 l -588.26,230.23 393.93,-371.99 168.37,97.19" /><path
         id="path114"
         style="fill:#17282f;fill-opacity:1;fill-rule:nonzero;stroke:none"
         d="m 798.27,607.141 c 0,-8.59 3.101,-14.493 8.101,-17.102 4.598,-2.391 10.801,-1.898 17.699,2 l 0.2,0.102 457.6,264.179 104.5,659.73 -588.1,-891.991 v -16.918" /><path
         id="path116"
         style="fill:#273e47;fill-opacity:1;fill-rule:nonzero;stroke:none"
         d="m 2171.27,1378.15 c -4.1,-6.81 -9.3,-12.91 -15.2,-17.01 l -1,-0.6 -1330.8,-768.399 -0.2,-0.102 c -6.898,-3.898 -13.097,-4.391 -17.699,-2 L 1442.82,1606.08 c 26.38,42.12 79.67,58.47 125.13,38.41 l 603.32,-266.34" /><path
         id="path118"
         style="fill:#17282f;fill-opacity:1;fill-rule:nonzero;stroke:none"
         d="m 798.27,1655.91 611.28,-269.88 c 45.49,-20.08 98.84,-3.69 125.19,38.49 l 641.9,1027.2 -1378.37,-795.81" /><path
         id="path120"
         style="fill:#273e47;fill-opacity:1;fill-rule:nonzero;stroke:none"
         d="m 798.27,1655.91 615.57,-229.96 c 43.83,-16.37 93.16,-0.17 118.73,39.02 l 644.07,986.75 -1378.37,-795.81" /><path
         id="path122"
         style="fill:#26b6a6;fill-opacity:1;fill-rule:nonzero;stroke:none"
         d="m 1691.89,864.02 -0.01,1018.8 c 0,16.5 7.88,40.97 17.5,54.37 l 633.93,882.71 c 23.67,32.95 64.89,48.34 104.35,38.95 l 596.13,-141.72 c 16.05,-3.81 40.88,-13.68 55.17,-21.93 l 29.29,-16.91 c 14.28,-8.25 25.97,-28.5 25.97,-45 V 1614.48 c 0,-16.49 -11.69,-36.75 -25.97,-45 L 1799.11,802.109 c -14.29,-8.238 -37.67,-8.238 -51.96,0.012 l -29.28,16.899 c -14.29,8.25 -25.98,28.5 -25.98,45" /><path
         id="path124"
         style="fill:#4ac2b6;fill-opacity:1;fill-rule:nonzero;stroke:none"
         d="m 1773.14,795.93 c -9.42,0 -18.84,2.058 -25.99,6.191 7.15,-4.133 16.57,-6.191 25.98,-6.191 9.42,0 18.84,2.058 25.98,6.191 l 12.46,7.188 289.62,167.211 -302.08,-174.411 c -7.14,-4.121 -16.56,-6.179 -25.97,-6.179 m -25.99,6.191 -29.28,16.899 c -14.29,8.25 -25.98,28.5 -25.98,45 v 229.08 496.68 l -0.01,293.04 0.01,-1018.8 c 0,-16.5 11.69,-36.75 25.99,-45 l 29.27,-16.899 m 1381.72,767.729 1.08,0.71 0.35,0.2 c -0.47,-0.31 -0.95,-0.62 -1.43,-0.91 m 11.86,10.56 c 1.97,2.41 3.79,5.02 5.43,7.74 v 0 0 0 0 c 0.1,0.18 0.2,0.35 0.31,0.52 -1.7,-2.91 -3.63,-5.7 -5.74,-8.26 m -1331.99,277.02 -6.38,1.52 c -2.31,0.56 -4.55,0.82 -6.69,0.82 -3.22,0 -6.23,-0.6 -8.93,-1.71 l -90.04,51.98 c -2.92,-9.35 -4.76,-18.98 -4.81,-26.84 0.11,16.49 7.94,40.69 17.49,53.99 l 99.36,138.35 v -218.11 m -116.86,25.58 c 0,0.06 0,0.12 0.01,0.17 -0.01,-0.05 -0.01,-0.11 -0.01,-0.17 m 1426.72,730.66 v 70.19 l 9.65,-5.57 c 11.95,-6.9 22.09,-22.2 25.08,-36.68 -1.08,3.94 -3.04,5.95 -5.59,5.95 -3.01,0 -6.84,-2.82 -10.99,-8.61 l -18.15,-25.28 m -901.73,30.17 126.44,176.06 c 19.05,26.53 49.48,41.67 81.22,41.67 7.68,0 15.44,-0.89 23.13,-2.72 L 2547.98,2835 2216.87,2643.84" /><path
         id="path126"
         style="fill:#fafaf9;fill-opacity:1;fill-rule:nonzero;stroke:none"
         d="M 1813.74,2375.32 V 1075.09 c 0,-16.56 11.64,-23.28 25.98,-15 l 1247.9,720.47 c 14.35,8.28 25.98,28.43 25.98,45 v 1300.23 c 0,16.57 -11.63,23.29 -25.98,15 l -1247.9,-720.47 c -14.34,-8.29 -25.98,-28.43 -25.98,-45" /><path
         id="path128"
         style="fill:#dadbd8;fill-opacity:1;fill-rule:nonzero;stroke:none"
         d="m 1813.74,2375.32 h -5 V 1075.09 c 0.01,-6.68 1.66,-12.48 5.09,-16.8 3.4,-4.34 8.7,-6.8 14.29,-6.75 4.59,0.01 9.35,1.48 14.1,4.22 l 1247.9,720.47 c 8.17,4.74 15.12,12.45 20.2,21.22 5.05,8.79 8.25,18.66 8.28,28.11 v 1300.23 c -0.01,6.69 -1.65,12.48 -5.09,16.8 -3.4,4.34 -8.7,6.8 -14.29,6.75 v 0 c -4.59,0 -9.35,-1.48 -14.1,-4.22 L 1837.23,2424.65 c -8.18,-4.75 -15.13,-12.46 -20.21,-21.23 -5.05,-8.78 -8.25,-18.65 -8.28,-28.1 h 5 5 c -0.02,7.11 2.59,15.6 6.94,23.1 4.32,7.52 10.37,14.03 16.54,17.57 l 1247.9,720.47 c 3.59,2.08 6.71,2.89 9.1,2.88 2.94,-0.05 4.82,-0.99 6.48,-2.99 1.62,-2.01 2.9,-5.49 2.9,-10.56 V 1825.56 c 0.02,-7.12 -2.59,-15.61 -6.94,-23.11 -4.32,-7.52 -10.37,-14.02 -16.54,-17.56 L 1837.23,1064.42 c -3.59,-2.07 -6.71,-2.88 -9.11,-2.88 -2.93,0.06 -4.82,0.99 -6.48,2.99 -1.62,2.01 -2.9,5.49 -2.9,10.56 v 1300.23 h -5" /><path
         id="path130"
         style="fill:#26b6a6;fill-opacity:1;fill-rule:nonzero;stroke:none"
         d="m 1786.77,1858.04 -90.07,52 c -2.96,-9.5 -4.82,-19.28 -4.82,-27.22 l 0.01,-1018.8 c 0,-16.5 11.69,-36.75 25.99,-45 l 29.27,-16.899 c 14.29,-8.25 37.67,-8.25 51.96,0 l 12.46,7.188 -24.8,1048.731" /><path
         id="path132"
         style="fill:#1db3a0;fill-opacity:1;fill-rule:nonzero;stroke:none"
         d="m 1773.13,795.93 c -9.41,0 -18.83,2.058 -25.98,6.191 l -29.27,16.899 c -14.3,8.25 -25.99,28.5 -25.99,45 l -0.01,1018.8 c 0,7.94 1.86,17.72 4.82,27.22 l 90.04,-51.98 c -8.18,-3.37 -13.58,-11.47 -13.58,-22.11 v -1018.802 0 0 c 0,-8.597 3.1,-14.488 8.1,-17.097 v 0 0 0 0 c 0.13,-0.071 0.27,-0.141 0.41,-0.199 1.73,-0.821 3.68,-1.25 5.79,-1.25 0.01,0 0.02,0 0.03,0 v 0 0 c 0.02,0 0.05,0 0.08,0 3.32,0.019 7.06,1.07 11.03,3.25 0.05,0.027 0.1,0.058 0.14,0.078 0.03,0.019 0.07,0.039 0.1,0.05 0.04,0.032 0.08,0.051 0.12,0.071 l 0.2,0.097 12.41,7.161 v 0 l -12.46,-7.188 c -7.14,-4.133 -16.56,-6.191 -25.98,-6.191" /><path
         id="path134"
         style="fill:#26b6a6;fill-opacity:1;fill-rule:nonzero;stroke:none"
         d="m 3154.25,2633.25 v -1018.8 c 0,-8.5 -3.09,-17.99 -8.09,-26.3 -4.11,-6.8 -9.31,-12.9 -15.21,-17 l -1,-0.59 -1.69,-1.11 -1329.1,-767.302 -0.2,-0.097 c -6.9,-3.903 -13.1,-4.391 -17.7,-2 -5,2.609 -8.1,8.5 -8.1,17.097 V 1835.95 c 0,16.5 13,26.9 29.2,23 l 558.89,-132.89 73.21,-17.41 c 16.2,-3.8 37.1,4 46.7,17.5 l 84.79,118.1 570.8,794.7 c 9.6,13.4 17.5,10.9 17.5,-5.7" /><path
         id="path136"
         style="fill:#4ac2b6;fill-opacity:1;fill-rule:nonzero;stroke:none"
         d="m 1799.16,802.148 v 0 l 457.59,264.182 0.01,0.04 703.06,405.95 0.07,-0.06 168.37,97.19 -1329.1,-767.302 m -26,15 v 0 1018.802 c 0,14.16 9.56,23.82 22.51,23.82 2.14,0 4.38,-0.26 6.69,-0.82 l 558.89,-132.89 0.05,-0.02 -0.06,-0.1 0.01,0.12 -588.09,-891.99 v -16.922 m 1373,771.002 c 4.91,8.17 7.96,17.47 8.05,25.87 l -587.46,229.92 -0.78,0.34 570.78,794.67 c 4.15,5.79 7.98,8.61 10.99,8.61 3.96,0 6.51,-4.88 6.51,-14.31 v -836.84 -181.96 c 0,-2.33 -0.23,-4.73 -0.67,-7.17 -1.17,-6.45 -3.8,-13.1 -7.42,-19.13" /><path
         id="path138"
         style="fill:#26b6a6;fill-opacity:1;fill-rule:nonzero;stroke:none"
         d="m 3128.26,1569.45 1.69,1.11 1,0.59 c 5.9,4.1 11.1,10.2 15.21,17 4.91,8.17 7.96,17.47 8.05,25.87 l -588.26,230.23 393.94,-371.99 168.37,97.19" /><path
         id="path140"
         style="fill:#26b6a6;fill-opacity:1;fill-rule:nonzero;stroke:none"
         d="m 1773.16,817.148 c 0,-8.597 3.1,-14.488 8.1,-17.097 4.6,-2.391 10.8,-1.903 17.7,2 l 0.2,0.097 457.59,264.182 104.5,659.73 -588.09,-891.99 v -16.922" /><path
         id="path142"
         style="fill:#26b6a6;fill-opacity:1;fill-rule:nonzero;stroke:none"
         d="m 3146.16,1588.15 c -4.11,-6.8 -9.31,-12.9 -15.21,-17 l -1,-0.59 -1330.79,-768.412 -0.2,-0.097 c -6.9,-3.903 -13.1,-4.391 -17.7,-2 L 2417.71,1816.1 c 26.38,42.11 79.67,58.46 125.13,38.4 l 603.32,-266.35" /><path
         id="path144"
         style="fill:#4ac2b6;fill-opacity:1;fill-rule:nonzero;stroke:none"
         d="m 1787.49,798.602 v 0 c -0.01,0 -0.02,0 -0.03,0 -2.28,0 -4.37,0.5 -6.2,1.449 L 2417.71,1816.1 c 18.79,30 51.24,46.93 84.79,46.93 13.54,0 27.26,-2.76 40.34,-8.53 l 603.32,-266.35 c -4.11,-6.8 -9.31,-12.9 -15.21,-17 l -1,-0.59 -170.13,-98.24 -1160.66,-670.172 -0.2,-0.097 c -4.14,-2.34 -8.03,-3.449 -11.47,-3.449" /><path
         id="path146"
         style="fill:#dadbd8;fill-opacity:1;fill-rule:nonzero;stroke:none"
         d="m 2493.56,2263.89 c 10.54,13.82 15.8,27.18 15.8,40.06 v 61.01 c -10.83,-0.1 -24.14,-4.72 -39.94,-13.84 -19.9,-11.49 -35.71,-26.17 -47.4,-44.05 -11.71,-17.87 -17.56,-36.76 -17.56,-56.66 0,-16.98 4.24,-27.04 12.72,-30.18 8.49,-3.16 21.65,0.43 39.51,10.74 14.05,8.11 26.33,19.07 36.87,32.92 z M 2363.2,2075.83 c -27.51,-2.28 -48.87,5.06 -64.08,22.03 -15.22,16.95 -22.83,43 -22.83,78.11 0,40.09 8.13,78.36 24.36,114.8 16.25,36.45 39.13,69.93 68.69,100.44 29.56,30.53 64.37,57.37 104.46,80.51 37.45,21.62 69.49,33.61 96.14,35.97 26.62,2.35 46.8,-4.51 60.56,-20.56 13.75,-16.05 20.63,-40.47 20.63,-73.23 0,-34.83 -7.46,-65.98 -22.39,-93.47 -14.92,-27.48 -34.67,-48.34 -59.24,-62.52 -12.01,-6.93 -21.89,-9.56 -29.63,-7.89 -7.76,1.68 -12.95,6.71 -15.59,15.14 -8.19,-15.56 -18.65,-29.86 -31.38,-42.91 -12.73,-13.05 -27,-24.15 -42.79,-33.27 -27.22,-15.42 -48.88,-20.32 -64.96,-14.67 -16.09,5.63 -24.15,21.9 -24.15,48.82 0,33.36 9.95,64.99 29.85,94.92 19.9,29.92 47.11,54.86 81.63,74.79 14.94,8.61 29.56,14.5 43.9,17.65 14.34,3.15 26.04,3.25 35.12,0.31 v -105.35 c 0,-8.48 1.45,-13.71 4.38,-15.67 2.92,-1.98 7.75,-1.02 14.49,2.87 11.41,6.59 20.26,18.28 26.56,35.09 6.28,16.79 9.43,37.05 9.43,60.74 0,26.34 -5.7,45.44 -17.12,57.27 -11.41,11.85 -27.14,16.67 -47.19,14.46 -20.03,-2.21 -42.94,-10.75 -68.69,-25.62 -47.11,-27.2 -84.26,-60.57 -111.48,-100.13 -27.21,-39.56 -40.81,-83.77 -40.81,-132.64 0,-28.67 5.92,-49.62 17.76,-62.82 11.87,-13.2 28.1,-18.81 48.73,-16.86 20.63,1.96 44.11,10.55 70.45,25.76 14.34,8.27 28.16,18.01 41.48,29.21 13.31,11.19 24.21,22.32 32.7,33.37 1.45,1.72 2.63,2.84 3.51,3.34 0.88,0.51 1.75,0.13 2.62,-1.12 l 10.98,-20 c 0.59,-1.41 0.88,-2.27 0.88,-2.56 0,-1.46 -1.03,-3.37 -3.08,-5.73 -10.82,-13.27 -24.07,-26.47 -39.72,-39.61 -15.66,-13.13 -31.97,-24.6 -48.93,-34.39 -36,-20.79 -67.74,-32.31 -95.25,-34.58" /><path
         id="path148"
         style="fill:#f47089;fill-opacity:1;fill-rule:nonzero;stroke:none"
         d="m 1089.56,1975.65 -97.482,56.27 -0.086,0.04 -0.691,0.4 -0.067,-0.11 c -33.382,18.84 -79.211,16 -129.879,-13.25 -102.046,-58.92 -184.789,-202.22 -184.789,-320.06 0,-58.83 20.633,-100.17 53.954,-119.52 v -0.03 l 0.156,-0.07 0.019,-0.02 90.715,-51.96 16.348,27.36 c 16.883,3.87 34.453,9.9 53.004,20.6 102.043,58.93 184.788,202.23 184.808,320.08 0,17.5 -2.35,32.91 -5.8,47.2 l 19.79,33.07" /><path
         id="path150"
         style="fill:#26b6a6;fill-opacity:1;fill-rule:nonzero;stroke:none"
         d="m 1089.56,1975.65 -97.482,56.27 -0.086,0.04 -0.691,0.4 -0.067,-0.11 c -33.382,18.84 -79.211,16 -129.879,-13.25 -102.046,-58.92 -184.789,-202.22 -184.789,-320.06 0,-58.83 20.633,-100.17 53.954,-119.52 v -0.03 l 0.156,-0.07 0.019,-0.02 90.715,-51.96 16.348,27.36 c 16.883,3.87 34.453,9.9 53.004,20.6 102.043,58.93 184.788,202.23 184.808,320.08 0,17.5 -2.35,32.91 -5.8,47.2 l 19.79,33.07" /><path
         id="path152"
         style="fill:#08917e;fill-opacity:1;fill-rule:nonzero;stroke:none"
         d="m 821.41,1527.34 -90.715,51.96 -0.019,0.02 -0.156,0.07 v 0.03 0 c -33.321,19.35 -53.954,60.69 -53.954,119.52 0,117.84 82.743,261.14 184.789,320.06 29.61,17.09 57.559,25.17 82.344,25.17 17.629,0 33.66,-4.09 47.535,-11.92 l 0.067,0.11 0.691,-0.4 0.086,-0.04 97.482,-56.27 -19.79,-33.07 v 0 c 3.45,-14.29 5.8,-29.7 5.8,-47.2 0,-28.06 -4.69,-57.54 -13.22,-87 -22.15,-76.56 -70.205,-152.87 -129.116,-202.89 -2.398,-2.03 -4.804,-4.02 -7.238,-5.97 -11.406,-9.12 -23.191,-17.26 -35.234,-24.22 -18.551,-10.7 -36.121,-16.73 -53.004,-20.6 l -16.348,-27.36" /><path
         id="path154"
         style="fill:#26b6a6;fill-opacity:1;fill-rule:nonzero;stroke:none"
         d="m 955.098,1965.14 c -102.063,-58.93 -184.805,-202.23 -184.805,-320.07 0,-117.85 82.734,-165.62 184.789,-106.69 102.058,58.92 184.798,202.22 184.808,320.07 0,117.84 -82.73,165.61 -184.792,106.69" /><path
         id="path156"
         style="fill:#ffffff;fill-opacity:1;fill-rule:nonzero;stroke:none"
         d="m 882.891,1616.99 c -1.914,0.18 -2.864,1.11 -2.864,2.81 0,1.27 0.52,3.06 1.582,5.38 l 9.239,20.92 c 1.269,2.86 2.433,4.59 3.507,5.21 0.84,0.49 2.325,0.8 4.442,0.98 7.012,0.23 15.129,1.82 24.355,4.83 9.231,2.97 19.258,7.6 30.09,13.85 17.391,10.05 30.184,20.77 38.348,32.18 8.176,11.4 12.26,23.04 12.26,34.93 0,22.07 -13.479,25.31 -40.432,9.77 L 936.68,1732.4 c -4.25,-2.44 -7.266,-3.29 -9.063,-2.52 -1.816,0.74 -2.707,3.14 -2.707,7.19 v 8.28 c 0,3.81 0.891,7.09 2.707,9.82 1.797,2.75 4.813,5.33 9.063,7.79 l 26.101,15.07 c 11.465,6.61 20.059,14.6 25.782,23.96 5.734,9.35 8.605,18.71 8.605,28.04 0,21.43 -15.07,23.44 -45.207,6.05 -18.672,-10.78 -35.125,-24.21 -49.336,-40.26 -2.129,-2.29 -3.613,-3.68 -4.461,-4.16 -1.066,-0.63 -2.226,-0.34 -3.496,0.84 l -8.918,9.8 c -1.055,1.09 -1.59,2.27 -1.59,3.55 0,1.68 0.957,3.74 2.871,6.11 7.422,9.59 17.293,19.42 29.598,29.5 12.305,10.08 25.996,19.47 41.055,28.16 16.339,9.44 30.507,15.07 42.496,16.9 11.99,1.83 21.23,0 27.7,-5.49 6.47,-5.5 9.71,-14.39 9.71,-26.7 0,-9.98 -2.4,-20.59 -7.16,-31.83 -4.78,-11.25 -11.62,-21.78 -20.54,-31.6 11.47,2.38 20,0.77 25.63,-4.77 5.61,-5.57 8.43,-14.3 8.43,-26.17 0,-19.95 -7.37,-40.28 -22.13,-61 -14.74,-20.72 -35.687,-38.92 -62.855,-54.59 -34.375,-19.86 -59.746,-28.98 -76.074,-27.38" /><path
         id="path158"
         style="fill:#e7e8e5;fill-opacity:1;fill-rule:nonzero;stroke:none"
         d="m 2639.46,920.898 c -197.06,-113.777 -197.06,-298.238 0,-412.007 197.06,-113.77 516.56,-113.77 713.62,0 197.06,113.769 197.05,298.23 -0.01,412.007 -197.06,113.772 -516.55,113.772 -713.61,0" /><path
         id="path160"
         style="fill:#f6879f;fill-opacity:1;fill-rule:nonzero;stroke:none"
         d="m 2979.9,531.289 -0.1,0.07 1.93,1.743 c 1.41,1.207 2.83,2.398 4.16,3.718 1.47,1.45 2.98,2.91 4.49,4.352 1.52,1.449 3.02,2.879 4.47,4.277 2.9,2.789 5.56,5.461 7.57,7.84 l 35.58,-26.598 23.73,-17.742 -0.15,-0.32 c -9.47,-9.328 -19.27,-27.07 -20.78,-31.617 0,-0.012 -7.08,-11.524 -31.25,-5.731 -29.56,7.078 -34.24,51.199 -29.65,60.008" /><path
         id="path162"
         style="fill:#26b6a6;fill-opacity:1;fill-rule:nonzero;stroke:none"
         d="m 2631.26,543.461 c -27.17,31.598 -3,84.059 23.42,152.211 29.03,74.887 73.83,202.168 73.83,202.168 l 318.12,65.691 c 0,0 338.91,6.559 370.47,-58.281 25.24,-51.84 -198.02,-129.691 -230.09,-132.828 l -196.46,-10.633 -20.56,-9.898 -137.55,-174.172 -201.18,-34.258" /><path
         id="path164"
         style="fill:#26b6a6;fill-opacity:1;fill-rule:nonzero;stroke:none"
         d="m 3217.25,852.59 c 0,0 -42.74,-43.262 -68.85,-79.852 -57.34,-80.347 -148.05,-225.258 -148.05,-225.258 0,0 14.18,-46.05 57.45,-44 0,0 298.04,278.321 322.37,303.989 36.96,39 66.49,103.312 2.74,108.601 -63.75,5.301 -140.82,-37.058 -165.66,-63.48" /><path
         id="path166"
         style="fill:#26b6a6;fill-opacity:1;fill-rule:nonzero;stroke:none"
         d="m 3146.83,770.531 c 0,0 53.12,77.867 108.25,110.27 0,0 -54.8,-10.852 -137.74,-111.86 l 29.49,1.59" /><path
         id="path168"
         style="fill:#1db3a0;fill-opacity:1;fill-rule:nonzero;stroke:none"
         d="m 3117.34,768.941 c 82.94,101.008 137.74,111.86 137.74,111.86 -14.88,-8.75 -29.62,-20.813 -43.21,-33.762 -35.02,-33.379 -62.38,-72.648 -64.86,-76.25 -0.12,-0.168 -0.18,-0.258 -0.18,-0.258 h -0.01 l -29.48,-1.59" /><path
         id="path170"
         style="fill:#f6879f;fill-opacity:1;fill-rule:nonzero;stroke:none"
         d="m 3183.02,672.262 -20.91,-3.953 19.37,-71.75 c 0,0 18.85,1.781 25.28,1.429 6.43,-0.347 27.17,10.524 27.17,10.524 l -5.06,43.769 -23.02,24.02 -22.83,-4.039" /><path
         id="path172"
         style="fill:#17282f;fill-opacity:1;fill-rule:nonzero;stroke:none"
         d="m 3348.02,655.25 c 20.77,-6.93 34.74,-24.871 43.76,-44.559 4.75,-10.371 7.85,-21.41 10.93,-32.402 3.26,-11.609 1.71,-31.359 -13,-34.539 -4.68,-1.012 -9.46,0.75 -13.93,2.488 -29.44,11.461 -58.31,24.633 -88.48,34.184 -25.73,8.148 -50.56,16.476 -80.54,17.566 15.22,21.692 8.87,53.063 -2.4,64.114 -9.28,9.089 -21.34,10.16 -21.34,10.16 7.61,3.41 14.72,7.808 21.98,11.879 14.38,8.07 29.84,15.238 46.7,11.558 12.64,-2.75 22.18,-12.75 32.89,-19.988 20.41,-13.801 40.06,-12.66 63.43,-20.461" /><path
         id="path174"
         style="fill:#26b6a6;fill-opacity:1;fill-rule:nonzero;stroke:none"
         d="m 2674.1,612.219 c 26.28,8.07 68.26,15.222 192.94,21.652 125.83,6.488 295.07,34.438 295.07,34.438 29.02,-27.918 19.37,-71.75 19.37,-71.75 0,0 -221.32,-70.02 -293.42,-79.309 -114.75,-14.801 -154.39,-13.691 -206.2,-2.59 -58.2,12.469 -94.87,70.781 -7.76,97.559" /><path
         id="path176"
         style="fill:#f47089;fill-opacity:1;fill-rule:nonzero;stroke:none"
         d="m 3129.47,1205.67 93.67,-223.67 -67.02,-41.23 -128.8,218.1 102.15,46.8" /><path
         id="path178"
         style="fill:#dadbd8;fill-opacity:1;fill-rule:nonzero;stroke:none"
         d="m 2935.92,1416.45 c 51.15,-0.53 107.49,-19.14 126.88,-59.24 19.37,-40.12 79.98,-165.05 79.98,-165.05 0,0 -45.23,-66.2 -116.94,-61.53 l -89.92,285.82" /><path
         id="path180"
         style="fill:#f6879f;fill-opacity:1;fill-rule:nonzero;stroke:none"
         d="m 2595.51,1068.81 c 0.63,8.69 13.13,51.18 26.5,96.98 l 97.15,-33.45 -26.07,-82.24 -82.24,-78.272 c -29.1,49.402 -15.95,88.282 -15.34,96.982" /><path
         id="path182"
         style="fill:#fafaf9;fill-opacity:1;fill-rule:nonzero;stroke:none"
         d="m 2830.89,1413.37 c -60.98,-14.68 -144.12,-33.78 -168.22,-99.88 -23.83,-65.38 -58.58,-183.11 -58.58,-183.11 13.36,-23.2 86.92,-42.45 112.43,-28.97 l 11.99,39.64 V 897.84 c 47.69,-51.879 282.99,-38.59 318.12,65.699 0,0 0,278.571 0,331.561 0,52.98 -29.43,116.62 -110.71,121.35 l -105.03,-3.08" /><path
         id="path184"
         style="fill:#dadbd8;fill-opacity:1;fill-rule:nonzero;stroke:none"
         d="m 2728.51,1141.05 30.6,96.28 -30.6,-139.37 z" /><path
         id="path186"
         style="fill:#17282f;fill-opacity:1;fill-rule:nonzero;stroke:none"
         d="m 2808,1684.51 c 0,0 -16.85,2.89 -29.99,-10.54 -12.88,-13.17 -10.2,-37.56 0.02,-93.59 l 39.81,-4.56 -9.84,108.69" /><path
         id="path188"
         style="fill:#17282f;fill-opacity:1;fill-rule:nonzero;stroke:none"
         d="m 3040.11,1700.72 c 0,0 16.08,-0.01 24.9,5.06 12.22,7.01 15.41,-6.87 8.71,-18.93 -6.69,-12.07 -19.19,-27.79 -46.19,-30.77 -0.35,1.73 -11.41,31.09 -11.41,31.09 l 23.99,13.55" /><path
         id="path190"
         style="fill:#f6879f;fill-opacity:1;fill-rule:nonzero;stroke:none"
         d="m 2826.67,1575.79 c -5.9,-3.52 -14.34,7.82 -21.63,15.45 -7.28,7.63 -31.08,18.05 -42.95,-6.96 -12.09,-25.49 15.36,-59.38 31.49,-70.58 19.16,-13.31 33.09,-2.87 33.09,-2.87 l 4.22,-97.46 c 0,0 21.14,-51.72 78.38,-59.48 57.24,-7.76 45.45,39.43 26.65,62.56 l -0.09,35.43 c 0,0 29.56,-5.95 43.52,-2.23 7.47,1.99 25.27,23.52 36.77,47.61 12.9,27.04 34.36,75.05 15.25,156.27 -20.53,87.24 -114.24,89.9 -170.13,54.72 -55.88,-35.17 -34.57,-132.46 -34.57,-132.46" /><path
         id="path192"
         style="fill:#17282f;fill-opacity:1;fill-rule:nonzero;stroke:none"
         d="m 2826.67,1565.85 c -2.97,-0.06 -14.27,18.7 -21.63,25.39 -10.19,9.28 2.96,93.27 2.96,93.27 0,0 -10.31,31.86 9.84,52.99 20.14,21.13 59.19,17.56 87.73,18.59 29.71,1.07 61.5,2.87 102.05,20.48 40.55,17.61 43.58,19.69 48.61,1.89 5.03,-17.81 6.93,-58.58 -17.27,-85.91 l -13.12,-21.51 c 0,0 -12.33,-10.36 -50.14,-14.96 -37.83,-4.61 -102.27,15.71 -110.33,16.81 -10.96,1.5 -13.3,-9.13 -19.21,-38.16 -5.19,-25.49 -9.5,-68.68 -19.49,-68.88" /><path
         id="path194"
         style="fill:#17282f;fill-opacity:1;fill-rule:nonzero;stroke:none"
         d="m 2808.06,1677.98 -35.74,19.18 c 5.08,10.24 17.19,14.25 27.05,8.95 9.87,-5.29 13.76,-17.89 8.69,-28.13" /><path
         id="path196"
         style="fill:#f47089;fill-opacity:1;fill-rule:nonzero;stroke:none"
         d="m 2935.83,1451.88 c 0,0 -52.99,10.68 -71.52,20.53 -12.4,6.59 -22.61,18.02 -25.61,25.33 0,0 3.47,-15.72 14.55,-29.88 13.55,-17.32 82.58,-30.08 82.58,-30.08 v 14.1" /><path
         id="path198"
         style="fill:#17282f;fill-opacity:1;fill-rule:nonzero;stroke:none"
         d="m 2937.51,1577.72 c 0,-6.1 -4.75,-11.02 -10.61,-11 -5.87,0.01 -10.63,4.96 -10.63,11.05 0,6.11 4.76,11.03 10.63,11.01 5.86,-0.01 10.61,-4.97 10.61,-11.06" /><path
         id="path200"
         style="fill:#17282f;fill-opacity:1;fill-rule:nonzero;stroke:none"
         d="m 2926.25,1617.81 -22.71,-12.54 c -3.36,6.54 -0.99,14.63 5.29,18.09 6.27,3.47 14.07,0.99 17.42,-5.55" /><path
         id="path202"
         style="fill:#f47089;fill-opacity:1;fill-rule:nonzero;stroke:none"
         d="m 2931.03,1506.72 24.25,-9.1 c -2.41,-6.95 -9.78,-10.55 -16.47,-8.04 -6.7,2.52 -10.17,10.19 -7.78,17.14" /><path
         id="path204"
         style="fill:#17282f;fill-opacity:1;fill-rule:nonzero;stroke:none"
         d="m 3032.22,1608.97 -20.72,15.96 c 4.23,5.93 12.29,7.17 18.02,2.77 5.71,-4.41 6.93,-12.8 2.7,-18.73" /><path
         id="path206"
         style="fill:#17282f;fill-opacity:1;fill-rule:nonzero;stroke:none"
         d="m 3025.84,1580.74 c 0,-6.09 -4.75,-11.01 -10.62,-11 -5.86,0.02 -10.62,4.97 -10.62,11.06 0,6.09 4.76,11.03 10.62,11.01 5.87,-0.02 10.62,-4.97 10.62,-11.07" /><path
         id="path208"
         style="fill:#f47089;fill-opacity:1;fill-rule:nonzero;stroke:none"
         d="m 2975.81,1582.03 -10,-63.17 34.99,4.11 z" /><path
         id="path210"
         style="fill:#273e47;fill-opacity:1;fill-rule:nonzero;stroke:none"
         d="M 3340.57,864.371 3125.11,988.75 c -3.83,2.211 -8.54,2.211 -12.38,0 l -377.9,-218.211 221.6,-127.969 384.14,221.801" /><path
         id="path212"
         style="fill:#17282f;fill-opacity:1;fill-rule:nonzero;stroke:none"
         d="m 2954.45,660.871 -116.21,67.02 339.79,196.179 116.81,-66.679 -340.39,-196.52" /><path
         id="path214"
         style="fill:#17282f;fill-opacity:1;fill-rule:nonzero;stroke:none"
         d="m 2897.33,847.309 2.15,-1.239 56.95,-32.879 101.29,58.489 2.11,1.199 -59.1,34.109 -103.4,-59.679" /><path
         id="path216"
         style="fill:#17282f;fill-opacity:1;fill-rule:nonzero;stroke:none"
         d="m 2899.48,846.07 56.95,-32.879 101.29,58.489 -56.99,32.879 -101.25,-58.489" /><path
         id="path218"
         style="fill:#17282f;fill-opacity:1;fill-rule:nonzero;stroke:none"
         d="m 2734.83,770.539 v -5.059 c 0,-7.421 3.96,-14.3 10.36,-18.011 L 2946.03,631.52 c 3.19,-1.848 6.8,-2.758 10.4,-2.758 3.56,0 7.17,0.91 10.36,2.758 l 363.38,209.789 c 6.44,3.711 10.4,10.582 10.4,18.011 v 5.051 L 2956.43,642.59 2734.83,770.539" /><path
         id="path220"
         style="fill:#17282f;fill-opacity:1;fill-rule:nonzero;stroke:none"
         d="m 2956.43,642.59 v -13.828 c 3.56,0 7.17,0.91 10.36,2.758 l 363.38,209.789 c 6.44,3.711 10.4,10.582 10.4,18.011 v 5.051 L 2956.43,642.59" /><path
         id="path222"
         style="fill:#17282f;fill-opacity:1;fill-rule:nonzero;stroke:none"
         d="m 2962.28,639.512 c 6.87,-2.641 14.7,-2.141 21.21,1.636 l 361.77,208.883 c 6.36,3.668 10.73,9.957 11.96,17.199 l 39.61,236.19 c 0.21,1.34 0.33,2.68 0.33,4.03 0,6.58 -2.63,12.87 -7.27,17.49 L 3013.93,907.852 c -4.69,-2.723 -7.93,-7.383 -8.84,-12.723 l -42.81,-255.617" /><path
         id="path224"
         style="fill:#33535f;fill-opacity:1;fill-rule:nonzero;stroke:none"
         d="m 2956.43,642.57 2.47,-1.422 c 1.09,-0.609 2.22,-1.16 3.38,-1.636 l 42.81,255.617 c 0.91,5.34 4.15,10 8.84,12.723 l 375.96,217.088 c -1.46,1.46 -3.17,2.74 -5.02,3.82 L 3008.15,911.27 c -4.7,-2.719 -7.93,-7.379 -8.84,-12.719 L 2956.43,642.57" /><path
         id="path226"
         style="fill:#273e47;fill-opacity:1;fill-rule:nonzero;stroke:none"
         d="m 3166.04,857.551 c 2.65,15.808 18.97,36.82 36.46,46.91 17.48,10.098 29.52,5.461 26.86,-10.352 -2.65,-15.82 -18.98,-36.808 -36.47,-46.91 -17.48,-10.097 -29.51,-5.461 -26.85,10.352" /><path
         id="path228"
         style="fill:#f6879f;fill-opacity:1;fill-rule:nonzero;stroke:none"
         d="m 2693.09,1050.1 c 0,0 64.88,-249.76 92.27,-267.909 27.4,-18.16 78.4,-31.011 102.84,-40.402 24.43,-9.391 35.53,-21.277 31.34,-24.711 -4.18,-3.418 -39.42,-7.129 -51.68,-11.449 -12.27,-4.328 3.67,-23.981 30.6,-44.867 26.94,-20.891 50.34,-18.981 47.04,-32.864 -3.3,-13.867 -63.17,-27.808 -114,1.942 -50.84,29.75 -66.22,70.051 -96.51,104.121 -30.28,34.078 -99.52,176.207 -124.14,237.867 0,0 2.34,115.192 39.62,107.912 37.29,-7.29 42.62,-29.64 42.62,-29.64" /><path
         id="path230"
         style="fill:#26b6a6;fill-opacity:1;fill-rule:nonzero;stroke:none"
         d="m 3001.85,543.488 c 4.6,-11.117 20.51,-41.687 55.95,-40.008 0,0 37.55,35.079 87.04,81.411 l -142.99,-41.403" /><path
         id="path232"
         style="fill:#1db3a0;fill-opacity:1;fill-rule:nonzero;stroke:none"
         d="m 3055.01,503.41 c -33.49,0 -48.68,29.25 -53.16,40.07 0,0 0,0 0,0.008 l 142.99,41.403 c -49.49,-46.332 -87.04,-81.411 -87.04,-81.411 -0.95,-0.05 -1.88,-0.07 -2.79,-0.07" /><path
         id="path234"
         style="fill:#17282f;fill-opacity:1;fill-rule:nonzero;stroke:none"
         d="m 3054.41,493.73 -0.4,-1.031 0.4,1.031" /><path
         id="path236"
         style="fill:#17282f;fill-opacity:1;fill-rule:nonzero;stroke:none"
         d="m 3028.17,400.289 c -1.47,25.813 3.62,49.231 12.7,76.801 l -0.01,-0.039 -0.06,-0.039 c 0,0 -10.97,-9.301 -29.11,-3.883 -29.13,8.711 -36.38,49.351 -31.79,58.16 l -0.1,0.07 c -4.24,-3.668 -8.59,-7.23 -12.89,-10.8 -12.69,-10.528 -24.92,-22.399 -27.54,-39.45 -1.96,-12.781 3.94,-25.269 6.85,-37.871 5.56,-24 0.21,-48.976 -0.88,-73.597 -0.99,-21.871 10.75,-41.34 25.88,-56.821 7.99,-8.16 17.18,-15.019 26.33,-21.832 9.67,-7.199 25.71,-10.308 36.91,-0.258 3.4,3.051 6.96,13.211 6.41,17.961 -3.6,31.207 -10.86,59.028 -12.7,91.598" /><path
         id="path238"
         style="fill:#273e47;fill-opacity:1;fill-rule:nonzero;stroke:none"
         d="m 3061.58,508.629 c -2.71,-5.047 -5.07,-10.008 -7.17,-14.899 2.08,4.879 4.46,9.852 7.17,14.899" /><path
         id="path240"
         style="fill:#273e47;fill-opacity:1;fill-rule:nonzero;stroke:none"
         d="m 2979.8,531.359 v 0 l 1.93,1.743 z" /></g></g></svg>
